# xmcd
#
# Track frame offsets:
#	150
#	12671
#	26819
#	39976
#	51082
#	62777
#	76702
#	92289
#	105971
#	116313
#	128105
#	140109
#	158149
#	168083
#	180727
#
# Disc length: 2547 seconds
# Revision: 2
# Processed by: cddbd v1.5.2PL0 Copyright (c) Steve Scherf et al.
# Submitted via: dBpowerAMP V12.0
#
DISCID=b409f10f
DTITLE=Charlie Rich - The Great Charlie Rich CD 3
DYEAR=2005
DGENRE=Country
TTITLE0=A Part Of Your Life
TTITLE1=We Love Each Other
TTITLE2=If You Wouldn't Be My Lady
TTITLE3=You Never Really Want Me
TTITLE4=Windsong
TTITLE5=Love Survived
TTITLE6=Night Talk
TTITLE7=Sittin' And Thinkin'
TTITLE8=I Do My Swingin' At Home
TTITLE9=Why Don't We Go Somewhere And Love
TTITLE10=Nothing In The World
TTITLE11=Peice On You
TTITLE12=I'm Not Going Hungry
TTITLE13=Big Boss Man
TTITLE14=Stay
EXTD=
EXTT0=
EXTT1=
EXTT2=
EXTT3=
EXTT4=
EXTT5=
EXTT6=
EXTT7=
EXTT8=
EXTT9=
EXTT10=
EXTT11=
EXTT12=
EXTT13=
EXTT14=
PLAYORDER=
